{
  "accessors": [
    {
      "bufferView": 2,
      "componentType": 5126,
      "count": 442,
      "max": [
        16.587913513183594,
        1.1442934274673462,
        131.03889465332031
      ],
      "min": [
        12.588669776916504,
        -2.8549506664276123,
        36.038902282714844
      ],
      "type": "VEC3"
    },
    {
      "bufferView": 2,
      "byteOffset": 5304,
      "componentType": 5126,
      "count": 442,
      "max": [
        0.99850797653198242,
        0.99693745374679565,
        0.98759639263153076
      ],
      "min": [
        -0.99850797653198242,
        -0.99850785732269287,
        -0.98759639263153076
      ],
      "type": "VEC3"
    },
    {
      "bufferView": 3,
      "componentType": 5126,
      "count": 442,
      "max": [
        0.99975967407226562,
        0.99975967407226562,
        0.027402622625231743,
        1
      ],
      "min": [
        -0.99770092964172363,
        -0.99975961446762085,
        -0.034801248461008072,
        1
      ],
      "type": "VEC4"
    },
    {
      "bufferView": 3,
      "byteOffset": 7072,
      "componentType": 5126,
      "count": 442,
      "max": [
        1,
        1,
        1,
        1
      ],
      "min": [
        1,
        1,
        1,
        1
      ],
      "type": "VEC4"
    },
    {
      "bufferView": 1,
      "componentType": 5126,
      "count": 442,
      "max": [
        1,
        1
      ],
      "min": [
        0,
        0
      ],
      "type": "VEC2"
    },
    {
      "bufferView": 0,
      "componentType": 5125,
      "count": 2160,
      "max": [
        441
      ],
      "min": [
        0
      ],
      "type": "SCALAR"
    },
    {
      "bufferView": 2,
      "byteOffset": 10608,
      "componentType": 5126,
      "count": 442,
      "max": [
        2.4803440570831299,
        1.3744655847549438,
        131.03889465332031
      ],
      "min": [
        -1.5188999176025391,
        -2.6247782707214355,
        36.038902282714844
      ],
      "type": "VEC3"
    },
    {
      "bufferView": 2,
      "byteOffset": 15912,
      "componentType": 5126,
      "count": 442,
      "max": [
        0.99850785732269287,
        0.99693751335144043,
        0.98759639263153076
      ],
      "min": [
        -0.99850785732269287,
        -0.99850791692733765,
        -0.98759639263153076
      ],
      "type": "VEC3"
    },
    {
      "bufferView": 3,
      "byteOffset": 14144,
      "componentType": 5126,
      "count": 442,
      "max": [
        0.99975961446762085,
        0.99975961446762085,
        0.027401961386203766,
        1
      ],
      "min": [
        -0.99770092964172363,
        -0.99975961446762085,
        -0.034799989312887192,
        1
      ],
      "type": "VEC4"
    },
    {
      "bufferView": 3,
      "byteOffset": 21216,
      "componentType": 5126,
      "count": 442,
      "max": [
        1,
        1,
        1,
        1
      ],
      "min": [
        1,
        1,
        1,
        1
      ],
      "type": "VEC4"
    },
    {
      "bufferView": 1,
      "byteOffset": 3536,
      "componentType": 5126,
      "count": 442,
      "max": [
        1,
        1
      ],
      "min": [
        0,
        0
      ],
      "type": "VEC2"
    },
    {
      "bufferView": 0,
      "byteOffset": 8640,
      "componentType": 5125,
      "count": 2160,
      "max": [
        441
      ],
      "min": [
        0
      ],
      "type": "SCALAR"
    },
    {
      "bufferView": 2,
      "byteOffset": 21216,
      "componentType": 5126,
      "count": 442,
      "max": [
        -11.897086143493652,
        1.8049626350402832,
        131.03889465332031
      ],
      "min": [
        -15.897027969360352,
        -2.1949772834777832,
        36.038902282714844
      ],
      "type": "VEC3"
    },
    {
      "bufferView": 2,
      "byteOffset": 26520,
      "componentType": 5126,
      "count": 442,
      "max": [
        0.99776875972747803,
        0.99776870012283325,
        0.98759639263153076
      ],
      "min": [
        -0.99589473009109497,
        -0.99776870012283325,
        -0.98759639263153076
      ],
      "type": "VEC3"
    },
    {
      "bufferView": 3,
      "byteOffset": 28288,
      "componentType": 5126,
      "count": 442,
      "max": [
        0.99947375059127808,
        0.99947381019592285,
        0.027402359992265701,
        1
      ],
      "min": [
        -0.99947375059127808,
        -0.9966578483581543,
        -0.034800369292497635,
        1
      ],
      "type": "VEC4"
    },
    {
      "bufferView": 3,
      "byteOffset": 35360,
      "componentType": 5126,
      "count": 442,
      "max": [
        1,
        1,
        1,
        1
      ],
      "min": [
        1,
        1,
        1,
        1
      ],
      "type": "VEC4"
    },
    {
      "bufferView": 1,
      "byteOffset": 7072,
      "componentType": 5126,
      "count": 442,
      "max": [
        1,
        1
      ],
      "min": [
        0,
        0
      ],
      "type": "VEC2"
    },
    {
      "bufferView": 0,
      "byteOffset": 17280,
      "componentType": 5125,
      "count": 2160,
      "max": [
        441
      ],
      "min": [
        0
      ],
      "type": "SCALAR"
    }
  ],
  "asset": {
    "extras": {
      "author": "pescara92 (https://sketchfab.com/pescara92)",
      "license": "CC-BY-4.0 (http://creativecommons.org/licenses/by/4.0/)",
      "source": "https://sketchfab.com/models/46c55c51a0a844c099769cbd635177de",
      "title": "Martelletti"
    },
    "generator": "Sketchfab-3.27.3",
    "version": "2.0"
  },
  "bufferViews": [
    {
      "buffer": 0,
      "byteLength": 25920,
      "byteOffset": 0,
      "name": "floatBufferViews",
      "target": 34963
    },
    {
      "buffer": 0,
      "byteLength": 10608,
      "byteOffset": 25920,
      "byteStride": 8,
      "name": "floatBufferViews",
      "target": 34962
    },
    {
      "buffer": 0,
      "byteLength": 31824,
      "byteOffset": 36528,
      "byteStride": 12,
      "name": "floatBufferViews",
      "target": 34962
    },
    {
      "buffer": 0,
      "byteLength": 42432,
      "byteOffset": 68352,
      "byteStride": 16,
      "name": "floatBufferViews",
      "target": 34962
    }
  ],
  "buffers": [
    {
      "byteLength": 110784,
      "uri": "scene.bin"
    }
  ],
  "images": [
    {
      "uri": "textures/RK_aniso_stainl_baseColor.jpg"
    }
  ],
  "materials": [
    {
      "doubleSided": true,
      "emissiveFactor": [
        0,
        0,
        0
      ],
      "name": "RK_aniso_stainl",
      "pbrMetallicRoughness": {
        "baseColorFactor": [
          1,
          1,
          1,
          1
        ],
        "baseColorTexture": {
          "index": 0,
          "texCoord": 0
        },
        "metallicFactor": 0,
        "roughnessFactor": 0.59999999999999998
      }
    }
  ],
  "meshes": [
    {
      "primitives": [
        {
          "attributes": {
            "COLOR_0": 3,
            "NORMAL": 1,
            "POSITION": 0,
            "TANGENT": 2,
            "TEXCOORD_0": 4
          },
          "indices": 5,
          "material": 0,
          "mode": 4
        }
      ]
    },
    {
      "primitives": [
        {
          "attributes": {
            "COLOR_0": 9,
            "NORMAL": 7,
            "POSITION": 6,
            "TANGENT": 8,
            "TEXCOORD_0": 10
          },
          "indices": 11,
          "material": 0,
          "mode": 4
        }
      ]
    },
    {
      "primitives": [
        {
          "attributes": {
            "COLOR_0": 15,
            "NORMAL": 13,
            "POSITION": 12,
            "TANGENT": 14,
            "TEXCOORD_0": 16
          },
          "indices": 17,
          "material": 0,
          "mode": 4
        }
      ]
    }
  ],
  "nodes": [
    {
      "children": [
        1
      ],
      "name": "RootNode (gltf orientation matrix)",
      "rotation": [
        -0.70710678118654746,
        -0,
        -0,
        0.70710678118654757
      ]
    },
    {
      "children": [
        2
      ],
      "matrix": [
        1,
        0,
        0,
        0,
        0,
        0.99995875358581543,
        -0.0090813906863331795,
        0,
        0,
        0.0090813906863331795,
        0.99995875358581543,
        0,
        -1.4069999565435864e-07,
        -0.7586711049079895,
        -0.0013157794019207358,
        1
      ],
      "name": "RootNode (model correction matrix)"
    },
    {
      "children": [
        3,
        6,
        9
      ],
      "matrix": [
        0.99278664588928223,
        0.11989443749189377,
        0,
        0,
        -0.11989443749189377,
        0.99278664588928223,
        0,
        0,
        0,
        0,
        1,
        0,
        11.610989570617676,
        -186.38932800292969,
        49.189113616943359,
        1
      ],
      "name": "Nullo"
    },
    {
      "children": [
        4
      ],
      "matrix": [
        0.1391730900363769,
        0.99026812860835178,
        0,
        0,
        -0.99026812860835178,
        0.1391730900363769,
        0,
        0,
        0,
        0,
        1,
        0,
        25.200322253068951,
        183.83871184870804,
        34.349788665771484,
        1
      ],
      "name": "Cilindro_5"
    },
    {
      "children": [
        5
      ],
      "matrix": [
        0.019441554379205399,
        -0.99981099657015471,
        0,
        0,
        0.99981099657015471,
        0.019441554379205399,
        -0,
        0,
        -0,
        0,
        1,
        0,
        0.57154784379753432,
        14.602162847855423,
        -83.538902282714844,
        1
      ],
      "name": "3DSMeshMatrix"
    },
    {
      "mesh": 0,
      "name": ""
    },
    {
      "children": [
        7
      ],
      "matrix": [
        0.1391730900363769,
        0.99026812860835178,
        0,
        0,
        -0.99026812860835178,
        0.1391730900363769,
        0,
        0,
        0,
        0,
        1,
        0,
        11.222111674866568,
        185.75864956676352,
        34.349788665771484,
        1
      ],
      "name": "Cilindro_6"
    },
    {
      "children": [
        8
      ],
      "matrix": [
        0.019441554379205399,
        -0.99981099657015471,
        0,
        0,
        0.99981099657015471,
        0.019441554379205399,
        -0,
        0,
        -0,
        0,
        1,
        0,
        0.61569226162347168,
        0.49278522381673306,
        -83.538902282714844,
        1
      ],
      "name": "3DSMeshMatrix"
    },
    {
      "mesh": 1,
      "name": ""
    },
    {
      "children": [
        10
      ],
      "matrix": [
        -0.99211464219353973,
        0.12533318791306033,
        -1.4901161193847656e-08,
        0,
        -0.12533318791306033,
        -0.99211464219353973,
        3.3306690738754696e-16,
        0,
        -1.4783660152858601e-08,
        1.8676104769171479e-09,
        1,
        0,
        -3.0003832907061625,
        187.90950776589631,
        34.349788665771484,
        1
      ],
      "name": "Cilindro_7"
    },
    {
      "children": [
        11
      ],
      "matrix": [
        -0.99998498846060191,
        -0.0054801172129483218,
        -1.4900937504479318e-08,
        0,
        0.0054801172129483209,
        -0.99998498846060213,
        8.1660109951322093e-11,
        0,
        -1.4901161193847653e-08,
        0,
        0.99999999999999978,
        0,
        -13.895778055393411,
        -0.27116192563162167,
        -83.538902489778081,
        1
      ],
      "name": "3DSMeshMatrix"
    },
    {
      "mesh": 2,
      "name": ""
    }
  ],
  "samplers": [
    {
      "magFilter": 9729,
      "minFilter": 9987,
      "wrapS": 10497,
      "wrapT": 10497
    }
  ],
  "scene": 0,
  "scenes": [
    {
      "name": "OSG_Scene",
      "nodes": [
        0
      ]
    }
  ],
  "textures": [
    {
      "sampler": 0,
      "source": 0
    }
  ]
}

