{
  "accessors": [
    {
      "bufferView": 2,
      "componentType": 5126,
      "count": 107,
      "max": [
        26.843084335327148,
        77.969589233398438,
        158.51200866699219
      ],
      "min": [
        -18.586978912353516,
        -39.642498016357422,
        0.27750092744827271
      ],
      "type": "VEC3"
    },
    {
      "bufferView": 2,
      "byteOffset": 1284,
      "componentType": 5126,
      "count": 107,
      "max": [
        1,
        0.94877892732620239,
        0.99998778104782104
      ],
      "min": [
        -1,
        -0.98331135511398315,
        -0.99998027086257935
      ],
      "type": "VEC3"
    },
    {
      "bufferView": 3,
      "componentType": 5126,
      "count": 107,
      "max": [
        0.00018683812231756747,
        0.99998778104782104,
        0.94275528192520142,
        1
      ],
      "min": [
        -0.00019547744886949658,
        -0.99993306398391724,
        -0.98331135511398315,
        -1
      ],
      "type": "VEC4"
    },
    {
      "bufferView": 3,
      "byteOffset": 1712,
      "componentType": 5126,
      "count": 107,
      "max": [
        1,
        1,
        1,
        1
      ],
      "min": [
        1,
        1,
        1,
        1
      ],
      "type": "VEC4"
    },
    {
      "bufferView": 1,
      "componentType": 5126,
      "count": 107,
      "max": [
        1,
        1
      ],
      "min": [
        0,
        0
      ],
      "type": "VEC2"
    },
    {
      "bufferView": 0,
      "componentType": 5125,
      "count": 456,
      "max": [
        106
      ],
      "min": [
        0
      ],
      "type": "SCALAR"
    }
  ],
  "asset": {
    "extras": {
      "author": "pescara92 (https://sketchfab.com/pescara92)",
      "license": "CC-BY-4.0 (http://creativecommons.org/licenses/by/4.0/)",
      "source": "https://sketchfab.com/models/1d84ef05bec840cea1b2eb4cd3bf439e",
      "title": "Parte2 Metronomo"
    },
    "generator": "Sketchfab-3.27.3",
    "version": "2.0"
  },
  "bufferViews": [
    {
      "buffer": 0,
      "byteLength": 1824,
      "byteOffset": 0,
      "name": "floatBufferViews",
      "target": 34963
    },
    {
      "buffer": 0,
      "byteLength": 856,
      "byteOffset": 1824,
      "byteStride": 8,
      "name": "floatBufferViews",
      "target": 34962
    },
    {
      "buffer": 0,
      "byteLength": 2568,
      "byteOffset": 2680,
      "byteStride": 12,
      "name": "floatBufferViews",
      "target": 34962
    },
    {
      "buffer": 0,
      "byteLength": 3424,
      "byteOffset": 5248,
      "byteStride": 16,
      "name": "floatBufferViews",
      "target": 34962
    }
  ],
  "buffers": [
    {
      "byteLength": 8672,
      "uri": "scene.bin"
    }
  ],
  "images": [
    {
      "uri": "textures/default_baseColor.jpg"
    }
  ],
  "materials": [
    {
      "doubleSided": true,
      "emissiveFactor": [
        0,
        0,
        0
      ],
      "name": "default",
      "pbrMetallicRoughness": {
        "baseColorFactor": [
          1,
          1,
          1,
          1
        ],
        "baseColorTexture": {
          "index": 0,
          "texCoord": 0
        },
        "metallicFactor": 0,
        "roughnessFactor": 0.59999999999999998
      }
    }
  ],
  "meshes": [
    {
      "primitives": [
        {
          "attributes": {
            "COLOR_0": 3,
            "NORMAL": 1,
            "POSITION": 0,
            "TANGENT": 2,
            "TEXCOORD_0": 4
          },
          "indices": 5,
          "material": 0,
          "mode": 4
        }
      ]
    }
  ],
  "nodes": [
    {
      "children": [
        1
      ],
      "name": "RootNode (gltf orientation matrix)",
      "rotation": [
        -0.70710678118654746,
        -0,
        -0,
        0.70710678118654757
      ]
    },
    {
      "children": [
        2
      ],
      "matrix": [
        0.013108253479003906,
        -0.99991410970687866,
        0,
        0,
        0.99991410970687866,
        0.013108253479003906,
        0,
        0,
        0,
        0,
        1,
        0,
        -15.08792781829834,
        23.040000915527344,
        0,
        1
      ],
      "name": "RootNode (model correction matrix)"
    },
    {
      "children": [
        3
      ],
      "name": "c9a96190c1114fda963602ebd4afd5c3.3ds"
    },
    {
      "mesh": 0,
      "name": ""
    }
  ],
  "samplers": [
    {
      "magFilter": 9729,
      "minFilter": 9987,
      "wrapS": 10497,
      "wrapT": 10497
    }
  ],
  "scene": 0,
  "scenes": [
    {
      "name": "OSG_Scene",
      "nodes": [
        0
      ]
    }
  ],
  "textures": [
    {
      "sampler": 0,
      "source": 0
    }
  ]
}

